<svg width="12" height="12" viewBox="0 0 12 12" fill="none" xmlns="http://www.w3.org/2000/svg">
<path fill-rule="evenodd" clip-rule="evenodd" d="M0.707168 0.707108C0.316644 1.09763 0.316643 1.7308 0.707168 2.12132L4.59631 6.01047L0.707256 9.89953C0.316731 10.29 0.316731 10.9232 0.707256 11.3137C1.09778 11.7043 1.73094 11.7043 2.12147 11.3137L6.01053 7.42468L9.89956 11.3137C10.2901 11.7042 10.9232 11.7042 11.3138 11.3137C11.7043 10.9232 11.7043 10.29 11.3138 9.8995L7.42474 6.01047L11.3139 2.12135C11.7044 1.73083 11.7044 1.09766 11.3139 0.707137C10.9233 0.316613 10.2902 0.316613 9.89964 0.707137L6.01053 4.59625L2.12138 0.707108C1.73086 0.316584 1.09769 0.316584 0.707168 0.707108Z" fill="#000000"/>
</svg>
