<svg width="192" height="107" viewBox="0 0 192 107" fill="none"
  xmlns="http://www.w3.org/2000/svg">
  <path d="M170.5 18.5005C110.372 -4.46816 77.2425 -4.59672 21.4995 18.5005V28.5002V79.5005C28.5045 77.8905 35.14 76.465 41.4995 75.2284C87.175 66.3469 118.618 67.2125 170.5 79.5005V28.5002V18.5005Z" fill="#D0B272"/>
  <path d="M31.4995 96.0002L32.809 93.2802C34.2376 89.2727 34.7843 81.9876 21.4995 79.5005V28.5002C21.4995 28.5002 0.5 30.5 0.5 38.5L0.5 105.5C0.5 98 31.4995 96.0002 31.4995 96.0002Z" fill="#D0B272"/>
  <path d="M41.4995 75.2284C35.14 76.465 28.5045 77.8905 21.4995 79.5005C34.7843 81.9876 34.2376 89.2727 32.809 93.2802L41.4995 75.2284Z" fill="#D0B272"/>
  <path d="M160.5 96.0002L159.19 93.2802C157.761 89.2726 157.215 81.9876 170.5 79.5005V28.5002C170.5 28.5002 191.499 30.4999 191.499 38.4999V105.5C191.499 97.9999 160.5 96.0002 160.5 96.0002Z" fill="#D0B272"/>
  <path d="M150.499 75.2283C156.859 76.4649 163.495 77.8905 170.5 79.5005C157.215 81.9876 157.761 89.2726 159.19 93.2802L150.499 75.2283Z" fill="#D0B272"/>
  <path d="M21.4995 18.5005C77.2425 -4.59672 110.372 -4.46816 170.5 18.5005M21.4995 18.5005C21.4995 18.5005 21.4995 22.5203 21.4995 28.5002M21.4995 18.5005V28.5002M170.5 18.5005V79.5005M170.5 18.5005V28.5002M170.5 18.5005C170.5 18.5005 170.5 22.5202 170.5 28.5002M170.5 79.5005C118.618 67.2125 87.175 66.3469 41.4995 75.2284M170.5 79.5005C163.495 77.8905 156.859 76.4649 150.499 75.2283L159.19 93.2802M170.5 79.5005V28.5002M170.5 79.5005C170.5 76.3656 170.5 44.9848 170.5 28.5002M170.5 79.5005C157.215 81.9876 157.761 89.2726 159.19 93.2802M21.4995 79.5005C28.5045 77.8905 35.14 76.465 41.4995 75.2284M21.4995 79.5005C21.4995 76.3656 21.4995 44.9849 21.4995 28.5002M21.4995 79.5005V28.5002M21.4995 79.5005C34.7843 81.9876 34.2376 89.2727 32.809 93.2802M41.4995 75.2284L32.809 93.2802M31.4995 96.0002C31.4995 96.0002 0.5 98 0.5 105.5M31.4995 96.0002L32.809 93.2802M31.4995 96.0002C31.4995 96.0002 32.2273 94.9119 32.809 93.2802M21.4995 28.5002C21.4995 28.5002 0.5 30.5 0.5 38.5M0.5 38.5C0.5 46.5 0.5 113 0.5 105.5M0.5 38.5L0.5 105.5M170.5 28.5002C170.5 28.5002 191.499 30.4999 191.499 38.4999M160.5 96.0002C160.5 96.0002 191.499 97.9999 191.499 105.5M160.5 96.0002L159.19 93.2802M160.5 96.0002C160.5 96.0002 159.772 94.9118 159.19 93.2802M191.499 38.4999C191.499 46.4999 191.499 113 191.499 105.5M191.499 38.4999V105.5" stroke="black"/>
</svg>
